<?xml version="1.0" standalone="no"?>
<!DOCTYPE svg PUBLIC "-//W3C//DTD SVG 20010904//EN"
 "http://www.w3.org/TR/2001/REC-SVG-20010904/DTD/svg10.dtd">
<svg version="1.0" xmlns="http://www.w3.org/2000/svg"
 width="283.000000pt" height="283.000000pt" viewBox="0 0 283.000000 283.000000"
 preserveAspectRatio="xMidYMid meet">
<metadata>
Created by potrace 1.14, written by Peter Selinger 2001-2017
</metadata>
<g transform="translate(0.000000,283.000000) scale(0.100000,-0.100000)"
fill="#000000" stroke="none">
<path d="M1816 2771 c-4 -5 -22 -119 -41 -253 -19 -134 -37 -248 -39 -254 -3
-7 -40 -5 -117 7 -171 27 -153 35 -170 -83 l-14 -103 -85 -6 c-124 -9 -212
-33 -325 -88 -211 -104 -343 -241 -374 -389 -23 -112 -8 -410 26 -502 41 -110
151 -239 250 -293 63 -34 223 -86 223 -72 0 2 -16 11 -36 20 -75 31 -171 157
-202 265 -23 76 -7 291 22 311 5 4 6 14 3 23 -3 8 -2 18 3 21 9 6 5 20 -28 95
-24 55 -27 140 -7 202 50 149 316 298 540 302 44 0 81 -5 99 -14 34 -18 94
-111 144 -225 l35 -80 2 -233 2 -233 -25 -19 c-31 -25 -32 -25 -73 3 -33 22
-34 25 -36 97 -9 358 3 316 -107 376 -65 35 -70 36 -95 22 -14 -9 -46 -19 -71
-22 -61 -9 -77 -24 -98 -87 -14 -40 -17 -79 -16 -154 3 -101 9 -122 63 -221
20 -37 15 -116 -20 -317 -12 -67 -21 -131 -21 -142 0 -23 -17 -160 -24 -191
-5 -19 2 -22 118 -38 68 -10 130 -20 139 -22 14 -4 13 -25 -13 -200 -21 -140
-26 -200 -19 -207 22 -22 32 12 58 201 32 222 12 202 173 177 52 -8 102 -15
111 -15 13 0 19 24 33 122 10 67 20 126 23 131 3 5 16 6 30 2 14 -3 46 -3 72
1 36 5 55 16 88 49 42 42 43 43 43 111 0 52 -5 76 -20 99 -24 36 -25 45 -6 45
7 0 30 18 49 39 63 69 70 186 17 254 -23 29 -25 37 -7 37 37 0 97 101 97 163
0 65 -43 150 -82 163 -16 5 -15 9 12 43 42 52 59 134 40 193 -18 53 -60 95
-106 104 -39 7 -38 2 -19 119 8 50 15 93 15 96 0 4 -59 15 -131 25 -77 11
-133 23 -136 30 -2 7 12 123 31 259 20 135 34 250 31 256 -8 12 -22 12 -29 0z
m254 -849 c19 -9 40 -28 47 -42 27 -54 7 -148 -34 -165 -10 -3 -54 -9 -98 -11
-44 -3 -86 -7 -93 -10 -8 -2 -24 -1 -37 2 -49 12 -72 141 -39 219 l15 37 102
-6 c62 -5 116 -14 137 -24z m-87 -303 c108 -16 135 -27 154 -62 20 -39 22
-102 4 -144 -9 -22 -21 -33 -43 -37 -46 -9 -231 -7 -247 3 -19 12 -40 101 -34
146 3 20 11 52 19 71 16 39 28 41 147 23z m12 -349 c86 -10 115 -36 115 -103
0 -84 -44 -112 -191 -122 -128 -9 -134 -5 -134 108 0 77 2 88 25 112 22 24 30
26 70 20 25 -4 76 -10 115 -15z m-95 -305 c41 -9 83 -18 93 -21 27 -8 57 -64
57 -107 0 -40 -39 -111 -68 -122 -8 -3 -56 -8 -106 -12 l-91 -6 -14 48 c-8 27
-14 67 -15 89 0 45 40 146 58 146 6 0 45 -7 86 -15z"/>
</g>
</svg>
